<?xml version="1.0" encoding="utf-8" standalone="no"?>
<!DOCTYPE svg PUBLIC "-//W3C//DTD SVG 1.1//EN"
  "http://www.w3.org/Graphics/SVG/1.1/DTD/svg11.dtd">
<svg xmlns:xlink="http://www.w3.org/1999/xlink" width="408.10125pt" height="310.86825pt" viewBox="0 0 408.10125 310.86825" xmlns="http://www.w3.org/2000/svg" version="1.1">
 <metadata>
  <rdf:RDF xmlns:dc="http://purl.org/dc/elements/1.1/" xmlns:cc="http://creativecommons.org/ns#" xmlns:rdf="http://www.w3.org/1999/02/22-rdf-syntax-ns#">
   <cc:Work>
    <dc:type rdf:resource="http://purl.org/dc/dcmitype/StillImage"/>
    <dc:date>2024-09-05T15:10:37.198108</dc:date>
    <dc:format>image/svg+xml</dc:format>
    <dc:creator>
     <cc:Agent>
      <dc:title>Matplotlib v3.9.0, https://matplotlib.org/</dc:title>
     </cc:Agent>
    </dc:creator>
   </cc:Work>
  </rdf:RDF>
 </metadata>
 <defs>
  <style type="text/css">*{stroke-linejoin: round; stroke-linecap: butt}</style>
 </defs>
 <g id="figure_1">
  <g id="patch_1">
   <path d="M 0 310.86825 
L 408.10125 310.86825 
L 408.10125 0 
L 0 0 
z
" style="fill: #ffffff"/>
  </g>
  <g id="axes_1">
   <g id="patch_2">
    <path d="M 43.78125 273.312 
L 400.90125 273.312 
L 400.90125 7.2 
L 43.78125 7.2 
z
" style="fill: #ffffff"/>
   </g>
   <g id="PathCollection_1">
    <defs>
     <path id="m7f5fcc3070" d="M 0 3 
C 0.795609 3 1.55874 2.683901 2.12132 2.12132 
C 2.683901 1.55874 3 0.795609 3 0 
C 3 -0.795609 2.683901 -1.55874 2.12132 -2.12132 
C 1.55874 -2.683901 0.795609 -3 0 -3 
C -0.795609 -3 -1.55874 -2.683901 -2.12132 -2.12132 
C -2.683901 -1.55874 -3 -0.795609 -3 0 
C -3 0.795609 -2.683901 1.55874 -2.12132 2.12132 
C -1.55874 2.683901 -0.795609 3 0 3 
z
" style="stroke: #ffffff; stroke-opacity: 0.8; stroke-width: 0.48"/>
    </defs>
    <g clip-path="url(#pf10639ee42)">
     <use xlink:href="#m7f5fcc3070" x="193.433045" y="260.933936" style="fill: #3e3e3e; fill-opacity: 0.8; stroke: #ffffff; stroke-opacity: 0.8; stroke-width: 0.48"/>
     <use xlink:href="#m7f5fcc3070" x="134.549648" y="260.933936" style="fill: #3e3e3e; fill-opacity: 0.8; stroke: #ffffff; stroke-opacity: 0.8; stroke-width: 0.48"/>
     <use xlink:href="#m7f5fcc3070" x="127.864589" y="260.933936" style="fill: #3e3e3e; fill-opacity: 0.8; stroke: #ffffff; stroke-opacity: 0.8; stroke-width: 0.48"/>
     <use xlink:href="#m7f5fcc3070" x="134.172773" y="260.933936" style="fill: #3e3e3e; fill-opacity: 0.8; stroke: #ffffff; stroke-opacity: 0.8; stroke-width: 0.48"/>
     <use xlink:href="#m7f5fcc3070" x="183.335087" y="260.933936" style="fill: #3e3e3e; fill-opacity: 0.8; stroke: #ffffff; stroke-opacity: 0.8; stroke-width: 0.48"/>
     <use xlink:href="#m7f5fcc3070" x="134.089734" y="260.933936" style="fill: #3e3e3e; fill-opacity: 0.8; stroke: #ffffff; stroke-opacity: 0.8; stroke-width: 0.48"/>
     <use xlink:href="#m7f5fcc3070" x="134.403505" y="260.933936" style="fill: #3e3e3e; fill-opacity: 0.8; stroke: #ffffff; stroke-opacity: 0.8; stroke-width: 0.48"/>
     <use xlink:href="#m7f5fcc3070" x="159.143125" y="260.933936" style="fill: #3e3e3e; fill-opacity: 0.8; stroke: #ffffff; stroke-opacity: 0.8; stroke-width: 0.48"/>
     <use xlink:href="#m7f5fcc3070" x="130.254659" y="260.933936" style="fill: #3e3e3e; fill-opacity: 0.8; stroke: #ffffff; stroke-opacity: 0.8; stroke-width: 0.48"/>
     <use xlink:href="#m7f5fcc3070" x="131.218273" y="260.933936" style="fill: #3e3e3e; fill-opacity: 0.8; stroke: #ffffff; stroke-opacity: 0.8; stroke-width: 0.48"/>
     <use xlink:href="#m7f5fcc3070" x="132.792365" y="260.933936" style="fill: #3e3e3e; fill-opacity: 0.8; stroke: #ffffff; stroke-opacity: 0.8; stroke-width: 0.48"/>
     <use xlink:href="#m7f5fcc3070" x="173.627764" y="260.933936" style="fill: #3e3e3e; fill-opacity: 0.8; stroke: #ffffff; stroke-opacity: 0.8; stroke-width: 0.48"/>
     <use xlink:href="#m7f5fcc3070" x="132.814974" y="260.933936" style="fill: #3e3e3e; fill-opacity: 0.8; stroke: #ffffff; stroke-opacity: 0.8; stroke-width: 0.48"/>
     <use xlink:href="#m7f5fcc3070" x="174.643091" y="260.933936" style="fill: #3e3e3e; fill-opacity: 0.8; stroke: #ffffff; stroke-opacity: 0.8; stroke-width: 0.48"/>
     <use xlink:href="#m7f5fcc3070" x="130.737462" y="260.933936" style="fill: #3e3e3e; fill-opacity: 0.8; stroke: #ffffff; stroke-opacity: 0.8; stroke-width: 0.48"/>
     <use xlink:href="#m7f5fcc3070" x="132.034407" y="260.933936" style="fill: #3e3e3e; fill-opacity: 0.8; stroke: #ffffff; stroke-opacity: 0.8; stroke-width: 0.48"/>
     <use xlink:href="#m7f5fcc3070" x="128.824316" y="260.933936" style="fill: #3e3e3e; fill-opacity: 0.8; stroke: #ffffff; stroke-opacity: 0.8; stroke-width: 0.48"/>
     <use xlink:href="#m7f5fcc3070" x="159.087588" y="260.933936" style="fill: #3e3e3e; fill-opacity: 0.8; stroke: #ffffff; stroke-opacity: 0.8; stroke-width: 0.48"/>
     <use xlink:href="#m7f5fcc3070" x="128.310586" y="260.933936" style="fill: #3e3e3e; fill-opacity: 0.8; stroke: #ffffff; stroke-opacity: 0.8; stroke-width: 0.48"/>
     <use xlink:href="#m7f5fcc3070" x="161.253831" y="260.933936" style="fill: #3e3e3e; fill-opacity: 0.8; stroke: #ffffff; stroke-opacity: 0.8; stroke-width: 0.48"/>
     <use xlink:href="#m7f5fcc3070" x="129.869668" y="260.933936" style="fill: #3e3e3e; fill-opacity: 0.8; stroke: #ffffff; stroke-opacity: 0.8; stroke-width: 0.48"/>
     <use xlink:href="#m7f5fcc3070" x="113.353004" y="260.933936" style="fill: #3e3e3e; fill-opacity: 0.8; stroke: #ffffff; stroke-opacity: 0.8; stroke-width: 0.48"/>
     <use xlink:href="#m7f5fcc3070" x="161.946079" y="260.933936" style="fill: #3e3e3e; fill-opacity: 0.8; stroke: #ffffff; stroke-opacity: 0.8; stroke-width: 0.48"/>
     <use xlink:href="#m7f5fcc3070" x="153.835545" y="260.933936" style="fill: #3e3e3e; fill-opacity: 0.8; stroke: #ffffff; stroke-opacity: 0.8; stroke-width: 0.48"/>
     <use xlink:href="#m7f5fcc3070" x="150.984533" y="260.933936" style="fill: #3e3e3e; fill-opacity: 0.8; stroke: #ffffff; stroke-opacity: 0.8; stroke-width: 0.48"/>
     <use xlink:href="#m7f5fcc3070" x="141.819327" y="260.933936" style="fill: #3e3e3e; fill-opacity: 0.8; stroke: #ffffff; stroke-opacity: 0.8; stroke-width: 0.48"/>
     <use xlink:href="#m7f5fcc3070" x="141.683003" y="260.933936" style="fill: #3e3e3e; fill-opacity: 0.8; stroke: #ffffff; stroke-opacity: 0.8; stroke-width: 0.48"/>
     <use xlink:href="#m7f5fcc3070" x="142.530418" y="260.933936" style="fill: #3e3e3e; fill-opacity: 0.8; stroke: #ffffff; stroke-opacity: 0.8; stroke-width: 0.48"/>
     <use xlink:href="#m7f5fcc3070" x="141.71394" y="260.933936" style="fill: #3e3e3e; fill-opacity: 0.8; stroke: #ffffff; stroke-opacity: 0.8; stroke-width: 0.48"/>
     <use xlink:href="#m7f5fcc3070" x="141.88784" y="260.933936" style="fill: #3e3e3e; fill-opacity: 0.8; stroke: #ffffff; stroke-opacity: 0.8; stroke-width: 0.48"/>
     <use xlink:href="#m7f5fcc3070" x="139.287856" y="260.933936" style="fill: #3e3e3e; fill-opacity: 0.8; stroke: #ffffff; stroke-opacity: 0.8; stroke-width: 0.48"/>
     <use xlink:href="#m7f5fcc3070" x="143.764434" y="260.933936" style="fill: #3e3e3e; fill-opacity: 0.8; stroke: #ffffff; stroke-opacity: 0.8; stroke-width: 0.48"/>
     <use xlink:href="#m7f5fcc3070" x="143.201625" y="260.933936" style="fill: #3e3e3e; fill-opacity: 0.8; stroke: #ffffff; stroke-opacity: 0.8; stroke-width: 0.48"/>
     <use xlink:href="#m7f5fcc3070" x="136.201184" y="260.933936" style="fill: #3e3e3e; fill-opacity: 0.8; stroke: #ffffff; stroke-opacity: 0.8; stroke-width: 0.48"/>
     <use xlink:href="#m7f5fcc3070" x="133.152649" y="260.933936" style="fill: #3e3e3e; fill-opacity: 0.8; stroke: #ffffff; stroke-opacity: 0.8; stroke-width: 0.48"/>
     <use xlink:href="#m7f5fcc3070" x="143.718991" y="260.933936" style="fill: #3e3e3e; fill-opacity: 0.8; stroke: #ffffff; stroke-opacity: 0.8; stroke-width: 0.48"/>
     <use xlink:href="#m7f5fcc3070" x="135.763001" y="260.933936" style="fill: #3e3e3e; fill-opacity: 0.8; stroke: #ffffff; stroke-opacity: 0.8; stroke-width: 0.48"/>
     <use xlink:href="#m7f5fcc3070" x="135.898222" y="260.933936" style="fill: #3e3e3e; fill-opacity: 0.8; stroke: #ffffff; stroke-opacity: 0.8; stroke-width: 0.48"/>
     <use xlink:href="#m7f5fcc3070" x="136.256697" y="260.933936" style="fill: #3e3e3e; fill-opacity: 0.8; stroke: #ffffff; stroke-opacity: 0.8; stroke-width: 0.48"/>
     <use xlink:href="#m7f5fcc3070" x="135.039535" y="260.933936" style="fill: #3e3e3e; fill-opacity: 0.8; stroke: #ffffff; stroke-opacity: 0.8; stroke-width: 0.48"/>
     <use xlink:href="#m7f5fcc3070" x="136.341742" y="260.933936" style="fill: #3e3e3e; fill-opacity: 0.8; stroke: #ffffff; stroke-opacity: 0.8; stroke-width: 0.48"/>
     <use xlink:href="#m7f5fcc3070" x="138.005611" y="260.933936" style="fill: #3e3e3e; fill-opacity: 0.8; stroke: #ffffff; stroke-opacity: 0.8; stroke-width: 0.48"/>
     <use xlink:href="#m7f5fcc3070" x="135.468945" y="260.933936" style="fill: #3e3e3e; fill-opacity: 0.8; stroke: #ffffff; stroke-opacity: 0.8; stroke-width: 0.48"/>
     <use xlink:href="#m7f5fcc3070" x="133.541514" y="260.933936" style="fill: #3e3e3e; fill-opacity: 0.8; stroke: #ffffff; stroke-opacity: 0.8; stroke-width: 0.48"/>
     <use xlink:href="#m7f5fcc3070" x="134.620438" y="260.933936" style="fill: #3e3e3e; fill-opacity: 0.8; stroke: #ffffff; stroke-opacity: 0.8; stroke-width: 0.48"/>
     <use xlink:href="#m7f5fcc3070" x="149.835655" y="260.933936" style="fill: #3e3e3e; fill-opacity: 0.8; stroke: #ffffff; stroke-opacity: 0.8; stroke-width: 0.48"/>
     <use xlink:href="#m7f5fcc3070" x="163.092489" y="260.933936" style="fill: #3e3e3e; fill-opacity: 0.8; stroke: #ffffff; stroke-opacity: 0.8; stroke-width: 0.48"/>
     <use xlink:href="#m7f5fcc3070" x="162.339477" y="260.933936" style="fill: #3e3e3e; fill-opacity: 0.8; stroke: #ffffff; stroke-opacity: 0.8; stroke-width: 0.48"/>
     <use xlink:href="#m7f5fcc3070" x="169.385687" y="260.933936" style="fill: #3e3e3e; fill-opacity: 0.8; stroke: #ffffff; stroke-opacity: 0.8; stroke-width: 0.48"/>
     <use xlink:href="#m7f5fcc3070" x="175.793982" y="260.933936" style="fill: #3e3e3e; fill-opacity: 0.8; stroke: #ffffff; stroke-opacity: 0.8; stroke-width: 0.48"/>
     <use xlink:href="#m7f5fcc3070" x="119.796468" y="260.933936" style="fill: #3e3e3e; fill-opacity: 0.8; stroke: #ffffff; stroke-opacity: 0.8; stroke-width: 0.48"/>
     <use xlink:href="#m7f5fcc3070" x="119.930425" y="260.933936" style="fill: #3e3e3e; fill-opacity: 0.8; stroke: #ffffff; stroke-opacity: 0.8; stroke-width: 0.48"/>
     <use xlink:href="#m7f5fcc3070" x="125.335311" y="260.933936" style="fill: #3e3e3e; fill-opacity: 0.8; stroke: #ffffff; stroke-opacity: 0.8; stroke-width: 0.48"/>
     <use xlink:href="#m7f5fcc3070" x="199.307212" y="260.933936" style="fill: #3e3e3e; fill-opacity: 0.8; stroke: #ffffff; stroke-opacity: 0.8; stroke-width: 0.48"/>
     <use xlink:href="#m7f5fcc3070" x="127.515848" y="260.933936" style="fill: #3e3e3e; fill-opacity: 0.8; stroke: #ffffff; stroke-opacity: 0.8; stroke-width: 0.48"/>
     <use xlink:href="#m7f5fcc3070" x="122.24175" y="260.933936" style="fill: #3e3e3e; fill-opacity: 0.8; stroke: #ffffff; stroke-opacity: 0.8; stroke-width: 0.48"/>
     <use xlink:href="#m7f5fcc3070" x="123.801948" y="260.933936" style="fill: #3e3e3e; fill-opacity: 0.8; stroke: #ffffff; stroke-opacity: 0.8; stroke-width: 0.48"/>
     <use xlink:href="#m7f5fcc3070" x="121.971487" y="260.933936" style="fill: #3e3e3e; fill-opacity: 0.8; stroke: #ffffff; stroke-opacity: 0.8; stroke-width: 0.48"/>
     <use xlink:href="#m7f5fcc3070" x="185.425764" y="260.933936" style="fill: #3e3e3e; fill-opacity: 0.8; stroke: #ffffff; stroke-opacity: 0.8; stroke-width: 0.48"/>
     <use xlink:href="#m7f5fcc3070" x="248.914086" y="260.933936" style="fill: #3e3e3e; fill-opacity: 0.8; stroke: #ffffff; stroke-opacity: 0.8; stroke-width: 0.48"/>
     <use xlink:href="#m7f5fcc3070" x="197.581014" y="260.933936" style="fill: #3e3e3e; fill-opacity: 0.8; stroke: #ffffff; stroke-opacity: 0.8; stroke-width: 0.48"/>
     <use xlink:href="#m7f5fcc3070" x="118.156159" y="260.933936" style="fill: #3e3e3e; fill-opacity: 0.8; stroke: #ffffff; stroke-opacity: 0.8; stroke-width: 0.48"/>
     <use xlink:href="#m7f5fcc3070" x="114.471382" y="260.933936" style="fill: #3e3e3e; fill-opacity: 0.8; stroke: #ffffff; stroke-opacity: 0.8; stroke-width: 0.48"/>
     <use xlink:href="#m7f5fcc3070" x="114.211637" y="260.933936" style="fill: #3e3e3e; fill-opacity: 0.8; stroke: #ffffff; stroke-opacity: 0.8; stroke-width: 0.48"/>
     <use xlink:href="#m7f5fcc3070" x="88.363057" y="260.933936" style="fill: #3e3e3e; fill-opacity: 0.8; stroke: #ffffff; stroke-opacity: 0.8; stroke-width: 0.48"/>
     <use xlink:href="#m7f5fcc3070" x="89.951526" y="260.933936" style="fill: #3e3e3e; fill-opacity: 0.8; stroke: #ffffff; stroke-opacity: 0.8; stroke-width: 0.48"/>
     <use xlink:href="#m7f5fcc3070" x="168.374701" y="260.933936" style="fill: #3e3e3e; fill-opacity: 0.8; stroke: #ffffff; stroke-opacity: 0.8; stroke-width: 0.48"/>
     <use xlink:href="#m7f5fcc3070" x="81.353987" y="260.933936" style="fill: #3e3e3e; fill-opacity: 0.8; stroke: #ffffff; stroke-opacity: 0.8; stroke-width: 0.48"/>
     <use xlink:href="#m7f5fcc3070" x="384.668523" y="260.933936" style="fill: #3e3e3e; fill-opacity: 0.8; stroke: #ffffff; stroke-opacity: 0.8; stroke-width: 0.48"/>
     <use xlink:href="#m7f5fcc3070" x="178.253846" y="260.933936" style="fill: #3e3e3e; fill-opacity: 0.8; stroke: #ffffff; stroke-opacity: 0.8; stroke-width: 0.48"/>
     <use xlink:href="#m7f5fcc3070" x="126.043294" y="260.933936" style="fill: #3e3e3e; fill-opacity: 0.8; stroke: #ffffff; stroke-opacity: 0.8; stroke-width: 0.48"/>
     <use xlink:href="#m7f5fcc3070" x="114.545934" y="260.933936" style="fill: #3e3e3e; fill-opacity: 0.8; stroke: #ffffff; stroke-opacity: 0.8; stroke-width: 0.48"/>
     <use xlink:href="#m7f5fcc3070" x="126.277707" y="260.933936" style="fill: #3e3e3e; fill-opacity: 0.8; stroke: #ffffff; stroke-opacity: 0.8; stroke-width: 0.48"/>
     <use xlink:href="#m7f5fcc3070" x="130.162511" y="260.933936" style="fill: #3e3e3e; fill-opacity: 0.8; stroke: #ffffff; stroke-opacity: 0.8; stroke-width: 0.48"/>
     <use xlink:href="#m7f5fcc3070" x="164.306235" y="260.933936" style="fill: #3e3e3e; fill-opacity: 0.8; stroke: #ffffff; stroke-opacity: 0.8; stroke-width: 0.48"/>
     <use xlink:href="#m7f5fcc3070" x="126.277913" y="260.933936" style="fill: #3e3e3e; fill-opacity: 0.8; stroke: #ffffff; stroke-opacity: 0.8; stroke-width: 0.48"/>
     <use xlink:href="#m7f5fcc3070" x="164.684623" y="260.933936" style="fill: #3e3e3e; fill-opacity: 0.8; stroke: #ffffff; stroke-opacity: 0.8; stroke-width: 0.48"/>
     <use xlink:href="#m7f5fcc3070" x="128.779723" y="260.933936" style="fill: #3e3e3e; fill-opacity: 0.8; stroke: #ffffff; stroke-opacity: 0.8; stroke-width: 0.48"/>
     <use xlink:href="#m7f5fcc3070" x="132.95158" y="260.933936" style="fill: #3e3e3e; fill-opacity: 0.8; stroke: #ffffff; stroke-opacity: 0.8; stroke-width: 0.48"/>
     <use xlink:href="#m7f5fcc3070" x="169.778336" y="260.933936" style="fill: #3e3e3e; fill-opacity: 0.8; stroke: #ffffff; stroke-opacity: 0.8; stroke-width: 0.48"/>
     <use xlink:href="#m7f5fcc3070" x="60.013977" y="260.933936" style="fill: #3e3e3e; fill-opacity: 0.8; stroke: #ffffff; stroke-opacity: 0.8; stroke-width: 0.48"/>
     <use xlink:href="#m7f5fcc3070" x="176.816454" y="260.933936" style="fill: #3e3e3e; fill-opacity: 0.8; stroke: #ffffff; stroke-opacity: 0.8; stroke-width: 0.48"/>
     <use xlink:href="#m7f5fcc3070" x="126.765713" y="260.933936" style="fill: #3e3e3e; fill-opacity: 0.8; stroke: #ffffff; stroke-opacity: 0.8; stroke-width: 0.48"/>
     <use xlink:href="#m7f5fcc3070" x="127.565723" y="260.933936" style="fill: #3e3e3e; fill-opacity: 0.8; stroke: #ffffff; stroke-opacity: 0.8; stroke-width: 0.48"/>
     <use xlink:href="#m7f5fcc3070" x="167.295942" y="260.933936" style="fill: #3e3e3e; fill-opacity: 0.8; stroke: #ffffff; stroke-opacity: 0.8; stroke-width: 0.48"/>
     <use xlink:href="#m7f5fcc3070" x="96.540621" y="260.933936" style="fill: #3e3e3e; fill-opacity: 0.8; stroke: #ffffff; stroke-opacity: 0.8; stroke-width: 0.48"/>
     <use xlink:href="#m7f5fcc3070" x="129.798607" y="260.933936" style="fill: #3e3e3e; fill-opacity: 0.8; stroke: #ffffff; stroke-opacity: 0.8; stroke-width: 0.48"/>
     <use xlink:href="#m7f5fcc3070" x="172.542321" y="260.933936" style="fill: #3e3e3e; fill-opacity: 0.8; stroke: #ffffff; stroke-opacity: 0.8; stroke-width: 0.48"/>
     <use xlink:href="#m7f5fcc3070" x="125.776312" y="260.933936" style="fill: #3e3e3e; fill-opacity: 0.8; stroke: #ffffff; stroke-opacity: 0.8; stroke-width: 0.48"/>
     <use xlink:href="#m7f5fcc3070" x="115.651814" y="260.933936" style="fill: #3e3e3e; fill-opacity: 0.8; stroke: #ffffff; stroke-opacity: 0.8; stroke-width: 0.48"/>
     <use xlink:href="#m7f5fcc3070" x="169.458399" y="260.933936" style="fill: #3e3e3e; fill-opacity: 0.8; stroke: #ffffff; stroke-opacity: 0.8; stroke-width: 0.48"/>
     <use xlink:href="#m7f5fcc3070" x="171.864465" y="260.933936" style="fill: #3e3e3e; fill-opacity: 0.8; stroke: #ffffff; stroke-opacity: 0.8; stroke-width: 0.48"/>
     <use xlink:href="#m7f5fcc3070" x="127.038865" y="260.933936" style="fill: #3e3e3e; fill-opacity: 0.8; stroke: #ffffff; stroke-opacity: 0.8; stroke-width: 0.48"/>
     <use xlink:href="#m7f5fcc3070" x="114.269625" y="260.933936" style="fill: #3e3e3e; fill-opacity: 0.8; stroke: #ffffff; stroke-opacity: 0.8; stroke-width: 0.48"/>
     <use xlink:href="#m7f5fcc3070" x="139.768243" y="260.933936" style="fill: #3e3e3e; fill-opacity: 0.8; stroke: #ffffff; stroke-opacity: 0.8; stroke-width: 0.48"/>
     <use xlink:href="#m7f5fcc3070" x="141.409982" y="261.216" style="fill: #3e3e3e; fill-opacity: 0.8; stroke: #ffffff; stroke-opacity: 0.8; stroke-width: 0.48"/>
    </g>
   </g>
   <g id="matplotlib.axis_1">
    <g id="xtick_1">
     <g id="line2d_1">
      <defs>
       <path id="m442a1a1cbf" d="M 0 0 
L 0 3.5 
" style="stroke: #000000; stroke-width: 0.8"/>
      </defs>
      <g>
       <use xlink:href="#m442a1a1cbf" x="73.284173" y="273.312" style="stroke: #000000; stroke-width: 0.8"/>
      </g>
     </g>
     <g id="text_1">
      <!-- −0.5 -->
      <g transform="translate(61.142766 287.910437) scale(0.1 -0.1)">
       <defs>
        <path id="DejaVuSans-2212" d="M 678 2272 
L 4684 2272 
L 4684 1741 
L 678 1741 
L 678 2272 
z
" transform="scale(0.015625)"/>
        <path id="DejaVuSans-30" d="M 2034 4250 
Q 1547 4250 1301 3770 
Q 1056 3291 1056 2328 
Q 1056 1369 1301 889 
Q 1547 409 2034 409 
Q 2525 409 2770 889 
Q 3016 1369 3016 2328 
Q 3016 3291 2770 3770 
Q 2525 4250 2034 4250 
z
M 2034 4750 
Q 2819 4750 3233 4129 
Q 3647 3509 3647 2328 
Q 3647 1150 3233 529 
Q 2819 -91 2034 -91 
Q 1250 -91 836 529 
Q 422 1150 422 2328 
Q 422 3509 836 4129 
Q 1250 4750 2034 4750 
z
" transform="scale(0.015625)"/>
        <path id="DejaVuSans-2e" d="M 684 794 
L 1344 794 
L 1344 0 
L 684 0 
L 684 794 
z
" transform="scale(0.015625)"/>
        <path id="DejaVuSans-35" d="M 691 4666 
L 3169 4666 
L 3169 4134 
L 1269 4134 
L 1269 2991 
Q 1406 3038 1543 3061 
Q 1681 3084 1819 3084 
Q 2600 3084 3056 2656 
Q 3513 2228 3513 1497 
Q 3513 744 3044 326 
Q 2575 -91 1722 -91 
Q 1428 -91 1123 -41 
Q 819 9 494 109 
L 494 744 
Q 775 591 1075 516 
Q 1375 441 1709 441 
Q 2250 441 2565 725 
Q 2881 1009 2881 1497 
Q 2881 1984 2565 2268 
Q 2250 2553 1709 2553 
Q 1456 2553 1204 2497 
Q 953 2441 691 2322 
L 691 4666 
z
" transform="scale(0.015625)"/>
       </defs>
       <use xlink:href="#DejaVuSans-2212"/>
       <use xlink:href="#DejaVuSans-30" x="83.789062"/>
       <use xlink:href="#DejaVuSans-2e" x="147.412109"/>
       <use xlink:href="#DejaVuSans-35" x="179.199219"/>
      </g>
     </g>
    </g>
    <g id="xtick_2">
     <g id="line2d_2">
      <g>
       <use xlink:href="#m442a1a1cbf" x="140.858598" y="273.312" style="stroke: #000000; stroke-width: 0.8"/>
      </g>
     </g>
     <g id="text_2">
      <!-- 0.0 -->
      <g transform="translate(132.907035 287.910437) scale(0.1 -0.1)">
       <use xlink:href="#DejaVuSans-30"/>
       <use xlink:href="#DejaVuSans-2e" x="63.623047"/>
       <use xlink:href="#DejaVuSans-30" x="95.410156"/>
      </g>
     </g>
    </g>
    <g id="xtick_3">
     <g id="line2d_3">
      <g>
       <use xlink:href="#m442a1a1cbf" x="208.433023" y="273.312" style="stroke: #000000; stroke-width: 0.8"/>
      </g>
     </g>
     <g id="text_3">
      <!-- 0.5 -->
      <g transform="translate(200.48146 287.910437) scale(0.1 -0.1)">
       <use xlink:href="#DejaVuSans-30"/>
       <use xlink:href="#DejaVuSans-2e" x="63.623047"/>
       <use xlink:href="#DejaVuSans-35" x="95.410156"/>
      </g>
     </g>
    </g>
    <g id="xtick_4">
     <g id="line2d_4">
      <g>
       <use xlink:href="#m442a1a1cbf" x="276.007448" y="273.312" style="stroke: #000000; stroke-width: 0.8"/>
      </g>
     </g>
     <g id="text_4">
      <!-- 1.0 -->
      <g transform="translate(268.055885 287.910437) scale(0.1 -0.1)">
       <defs>
        <path id="DejaVuSans-31" d="M 794 531 
L 1825 531 
L 1825 4091 
L 703 3866 
L 703 4441 
L 1819 4666 
L 2450 4666 
L 2450 531 
L 3481 531 
L 3481 0 
L 794 0 
L 794 531 
z
" transform="scale(0.015625)"/>
       </defs>
       <use xlink:href="#DejaVuSans-31"/>
       <use xlink:href="#DejaVuSans-2e" x="63.623047"/>
       <use xlink:href="#DejaVuSans-30" x="95.410156"/>
      </g>
     </g>
    </g>
    <g id="xtick_5">
     <g id="line2d_5">
      <g>
       <use xlink:href="#m442a1a1cbf" x="343.581873" y="273.312" style="stroke: #000000; stroke-width: 0.8"/>
      </g>
     </g>
     <g id="text_5">
      <!-- 1.5 -->
      <g transform="translate(335.630311 287.910437) scale(0.1 -0.1)">
       <use xlink:href="#DejaVuSans-31"/>
       <use xlink:href="#DejaVuSans-2e" x="63.623047"/>
       <use xlink:href="#DejaVuSans-35" x="95.410156"/>
      </g>
     </g>
    </g>
    <g id="text_6">
     <!-- Log2FC -->
     <g transform="translate(203.860781 301.588562) scale(0.1 -0.1)">
      <defs>
       <path id="DejaVuSans-4c" d="M 628 4666 
L 1259 4666 
L 1259 531 
L 3531 531 
L 3531 0 
L 628 0 
L 628 4666 
z
" transform="scale(0.015625)"/>
       <path id="DejaVuSans-6f" d="M 1959 3097 
Q 1497 3097 1228 2736 
Q 959 2375 959 1747 
Q 959 1119 1226 758 
Q 1494 397 1959 397 
Q 2419 397 2687 759 
Q 2956 1122 2956 1747 
Q 2956 2369 2687 2733 
Q 2419 3097 1959 3097 
z
M 1959 3584 
Q 2709 3584 3137 3096 
Q 3566 2609 3566 1747 
Q 3566 888 3137 398 
Q 2709 -91 1959 -91 
Q 1206 -91 779 398 
Q 353 888 353 1747 
Q 353 2609 779 3096 
Q 1206 3584 1959 3584 
z
" transform="scale(0.015625)"/>
       <path id="DejaVuSans-67" d="M 2906 1791 
Q 2906 2416 2648 2759 
Q 2391 3103 1925 3103 
Q 1463 3103 1205 2759 
Q 947 2416 947 1791 
Q 947 1169 1205 825 
Q 1463 481 1925 481 
Q 2391 481 2648 825 
Q 2906 1169 2906 1791 
z
M 3481 434 
Q 3481 -459 3084 -895 
Q 2688 -1331 1869 -1331 
Q 1566 -1331 1297 -1286 
Q 1028 -1241 775 -1147 
L 775 -588 
Q 1028 -725 1275 -790 
Q 1522 -856 1778 -856 
Q 2344 -856 2625 -561 
Q 2906 -266 2906 331 
L 2906 616 
Q 2728 306 2450 153 
Q 2172 0 1784 0 
Q 1141 0 747 490 
Q 353 981 353 1791 
Q 353 2603 747 3093 
Q 1141 3584 1784 3584 
Q 2172 3584 2450 3431 
Q 2728 3278 2906 2969 
L 2906 3500 
L 3481 3500 
L 3481 434 
z
" transform="scale(0.015625)"/>
       <path id="DejaVuSans-32" d="M 1228 531 
L 3431 531 
L 3431 0 
L 469 0 
L 469 531 
Q 828 903 1448 1529 
Q 2069 2156 2228 2338 
Q 2531 2678 2651 2914 
Q 2772 3150 2772 3378 
Q 2772 3750 2511 3984 
Q 2250 4219 1831 4219 
Q 1534 4219 1204 4116 
Q 875 4013 500 3803 
L 500 4441 
Q 881 4594 1212 4672 
Q 1544 4750 1819 4750 
Q 2544 4750 2975 4387 
Q 3406 4025 3406 3419 
Q 3406 3131 3298 2873 
Q 3191 2616 2906 2266 
Q 2828 2175 2409 1742 
Q 1991 1309 1228 531 
z
" transform="scale(0.015625)"/>
       <path id="DejaVuSans-46" d="M 628 4666 
L 3309 4666 
L 3309 4134 
L 1259 4134 
L 1259 2759 
L 3109 2759 
L 3109 2228 
L 1259 2228 
L 1259 0 
L 628 0 
L 628 4666 
z
" transform="scale(0.015625)"/>
       <path id="DejaVuSans-43" d="M 4122 4306 
L 4122 3641 
Q 3803 3938 3442 4084 
Q 3081 4231 2675 4231 
Q 1875 4231 1450 3742 
Q 1025 3253 1025 2328 
Q 1025 1406 1450 917 
Q 1875 428 2675 428 
Q 3081 428 3442 575 
Q 3803 722 4122 1019 
L 4122 359 
Q 3791 134 3420 21 
Q 3050 -91 2638 -91 
Q 1578 -91 968 557 
Q 359 1206 359 2328 
Q 359 3453 968 4101 
Q 1578 4750 2638 4750 
Q 3056 4750 3426 4639 
Q 3797 4528 4122 4306 
z
" transform="scale(0.015625)"/>
      </defs>
      <use xlink:href="#DejaVuSans-4c"/>
      <use xlink:href="#DejaVuSans-6f" x="53.962891"/>
      <use xlink:href="#DejaVuSans-67" x="115.144531"/>
      <use xlink:href="#DejaVuSans-32" x="178.621094"/>
      <use xlink:href="#DejaVuSans-46" x="242.244141"/>
      <use xlink:href="#DejaVuSans-43" x="299.763672"/>
     </g>
    </g>
   </g>
   <g id="matplotlib.axis_2">
    <g id="ytick_1">
     <g id="line2d_6">
      <defs>
       <path id="m567d9aab1d" d="M 0 0 
L -3.5 0 
" style="stroke: #000000; stroke-width: 0.8"/>
      </defs>
      <g>
       <use xlink:href="#m567d9aab1d" x="43.78125" y="261.828961" style="stroke: #000000; stroke-width: 0.8"/>
      </g>
     </g>
     <g id="text_7">
      <!-- 0.0 -->
      <g transform="translate(20.878125 265.62818) scale(0.1 -0.1)">
       <use xlink:href="#DejaVuSans-30"/>
       <use xlink:href="#DejaVuSans-2e" x="63.623047"/>
       <use xlink:href="#DejaVuSans-30" x="95.410156"/>
      </g>
     </g>
    </g>
    <g id="ytick_2">
     <g id="line2d_7">
      <g>
       <use xlink:href="#m567d9aab1d" x="43.78125" y="224.545737" style="stroke: #000000; stroke-width: 0.8"/>
      </g>
     </g>
     <g id="text_8">
      <!-- 0.2 -->
      <g transform="translate(20.878125 228.344956) scale(0.1 -0.1)">
       <use xlink:href="#DejaVuSans-30"/>
       <use xlink:href="#DejaVuSans-2e" x="63.623047"/>
       <use xlink:href="#DejaVuSans-32" x="95.410156"/>
      </g>
     </g>
    </g>
    <g id="ytick_3">
     <g id="line2d_8">
      <g>
       <use xlink:href="#m567d9aab1d" x="43.78125" y="187.262514" style="stroke: #000000; stroke-width: 0.8"/>
      </g>
     </g>
     <g id="text_9">
      <!-- 0.4 -->
      <g transform="translate(20.878125 191.061732) scale(0.1 -0.1)">
       <defs>
        <path id="DejaVuSans-34" d="M 2419 4116 
L 825 1625 
L 2419 1625 
L 2419 4116 
z
M 2253 4666 
L 3047 4666 
L 3047 1625 
L 3713 1625 
L 3713 1100 
L 3047 1100 
L 3047 0 
L 2419 0 
L 2419 1100 
L 313 1100 
L 313 1709 
L 2253 4666 
z
" transform="scale(0.015625)"/>
       </defs>
       <use xlink:href="#DejaVuSans-30"/>
       <use xlink:href="#DejaVuSans-2e" x="63.623047"/>
       <use xlink:href="#DejaVuSans-34" x="95.410156"/>
      </g>
     </g>
    </g>
    <g id="ytick_4">
     <g id="line2d_9">
      <g>
       <use xlink:href="#m567d9aab1d" x="43.78125" y="149.97929" style="stroke: #000000; stroke-width: 0.8"/>
      </g>
     </g>
     <g id="text_10">
      <!-- 0.6 -->
      <g transform="translate(20.878125 153.778509) scale(0.1 -0.1)">
       <defs>
        <path id="DejaVuSans-36" d="M 2113 2584 
Q 1688 2584 1439 2293 
Q 1191 2003 1191 1497 
Q 1191 994 1439 701 
Q 1688 409 2113 409 
Q 2538 409 2786 701 
Q 3034 994 3034 1497 
Q 3034 2003 2786 2293 
Q 2538 2584 2113 2584 
z
M 3366 4563 
L 3366 3988 
Q 3128 4100 2886 4159 
Q 2644 4219 2406 4219 
Q 1781 4219 1451 3797 
Q 1122 3375 1075 2522 
Q 1259 2794 1537 2939 
Q 1816 3084 2150 3084 
Q 2853 3084 3261 2657 
Q 3669 2231 3669 1497 
Q 3669 778 3244 343 
Q 2819 -91 2113 -91 
Q 1303 -91 875 529 
Q 447 1150 447 2328 
Q 447 3434 972 4092 
Q 1497 4750 2381 4750 
Q 2619 4750 2861 4703 
Q 3103 4656 3366 4563 
z
" transform="scale(0.015625)"/>
       </defs>
       <use xlink:href="#DejaVuSans-30"/>
       <use xlink:href="#DejaVuSans-2e" x="63.623047"/>
       <use xlink:href="#DejaVuSans-36" x="95.410156"/>
      </g>
     </g>
    </g>
    <g id="ytick_5">
     <g id="line2d_10">
      <g>
       <use xlink:href="#m567d9aab1d" x="43.78125" y="112.696067" style="stroke: #000000; stroke-width: 0.8"/>
      </g>
     </g>
     <g id="text_11">
      <!-- 0.8 -->
      <g transform="translate(20.878125 116.495285) scale(0.1 -0.1)">
       <defs>
        <path id="DejaVuSans-38" d="M 2034 2216 
Q 1584 2216 1326 1975 
Q 1069 1734 1069 1313 
Q 1069 891 1326 650 
Q 1584 409 2034 409 
Q 2484 409 2743 651 
Q 3003 894 3003 1313 
Q 3003 1734 2745 1975 
Q 2488 2216 2034 2216 
z
M 1403 2484 
Q 997 2584 770 2862 
Q 544 3141 544 3541 
Q 544 4100 942 4425 
Q 1341 4750 2034 4750 
Q 2731 4750 3128 4425 
Q 3525 4100 3525 3541 
Q 3525 3141 3298 2862 
Q 3072 2584 2669 2484 
Q 3125 2378 3379 2068 
Q 3634 1759 3634 1313 
Q 3634 634 3220 271 
Q 2806 -91 2034 -91 
Q 1263 -91 848 271 
Q 434 634 434 1313 
Q 434 1759 690 2068 
Q 947 2378 1403 2484 
z
M 1172 3481 
Q 1172 3119 1398 2916 
Q 1625 2713 2034 2713 
Q 2441 2713 2670 2916 
Q 2900 3119 2900 3481 
Q 2900 3844 2670 4047 
Q 2441 4250 2034 4250 
Q 1625 4250 1398 4047 
Q 1172 3844 1172 3481 
z
" transform="scale(0.015625)"/>
       </defs>
       <use xlink:href="#DejaVuSans-30"/>
       <use xlink:href="#DejaVuSans-2e" x="63.623047"/>
       <use xlink:href="#DejaVuSans-38" x="95.410156"/>
      </g>
     </g>
    </g>
    <g id="ytick_6">
     <g id="line2d_11">
      <g>
       <use xlink:href="#m567d9aab1d" x="43.78125" y="75.412843" style="stroke: #000000; stroke-width: 0.8"/>
      </g>
     </g>
     <g id="text_12">
      <!-- 1.0 -->
      <g transform="translate(20.878125 79.212062) scale(0.1 -0.1)">
       <use xlink:href="#DejaVuSans-31"/>
       <use xlink:href="#DejaVuSans-2e" x="63.623047"/>
       <use xlink:href="#DejaVuSans-30" x="95.410156"/>
      </g>
     </g>
    </g>
    <g id="ytick_7">
     <g id="line2d_12">
      <g>
       <use xlink:href="#m567d9aab1d" x="43.78125" y="38.12962" style="stroke: #000000; stroke-width: 0.8"/>
      </g>
     </g>
     <g id="text_13">
      <!-- 1.2 -->
      <g transform="translate(20.878125 41.928838) scale(0.1 -0.1)">
       <use xlink:href="#DejaVuSans-31"/>
       <use xlink:href="#DejaVuSans-2e" x="63.623047"/>
       <use xlink:href="#DejaVuSans-32" x="95.410156"/>
      </g>
     </g>
    </g>
    <g id="text_14">
     <!-- -log10(corr p-val) -->
     <g transform="translate(14.798438 183.627094) rotate(-90) scale(0.1 -0.1)">
      <defs>
       <path id="DejaVuSans-2d" d="M 313 2009 
L 1997 2009 
L 1997 1497 
L 313 1497 
L 313 2009 
z
" transform="scale(0.015625)"/>
       <path id="DejaVuSans-6c" d="M 603 4863 
L 1178 4863 
L 1178 0 
L 603 0 
L 603 4863 
z
" transform="scale(0.015625)"/>
       <path id="DejaVuSans-28" d="M 1984 4856 
Q 1566 4138 1362 3434 
Q 1159 2731 1159 2009 
Q 1159 1288 1364 580 
Q 1569 -128 1984 -844 
L 1484 -844 
Q 1016 -109 783 600 
Q 550 1309 550 2009 
Q 550 2706 781 3412 
Q 1013 4119 1484 4856 
L 1984 4856 
z
" transform="scale(0.015625)"/>
       <path id="DejaVuSans-63" d="M 3122 3366 
L 3122 2828 
Q 2878 2963 2633 3030 
Q 2388 3097 2138 3097 
Q 1578 3097 1268 2742 
Q 959 2388 959 1747 
Q 959 1106 1268 751 
Q 1578 397 2138 397 
Q 2388 397 2633 464 
Q 2878 531 3122 666 
L 3122 134 
Q 2881 22 2623 -34 
Q 2366 -91 2075 -91 
Q 1284 -91 818 406 
Q 353 903 353 1747 
Q 353 2603 823 3093 
Q 1294 3584 2113 3584 
Q 2378 3584 2631 3529 
Q 2884 3475 3122 3366 
z
" transform="scale(0.015625)"/>
       <path id="DejaVuSans-72" d="M 2631 2963 
Q 2534 3019 2420 3045 
Q 2306 3072 2169 3072 
Q 1681 3072 1420 2755 
Q 1159 2438 1159 1844 
L 1159 0 
L 581 0 
L 581 3500 
L 1159 3500 
L 1159 2956 
Q 1341 3275 1631 3429 
Q 1922 3584 2338 3584 
Q 2397 3584 2469 3576 
Q 2541 3569 2628 3553 
L 2631 2963 
z
" transform="scale(0.015625)"/>
       <path id="DejaVuSans-20" transform="scale(0.015625)"/>
       <path id="DejaVuSans-70" d="M 1159 525 
L 1159 -1331 
L 581 -1331 
L 581 3500 
L 1159 3500 
L 1159 2969 
Q 1341 3281 1617 3432 
Q 1894 3584 2278 3584 
Q 2916 3584 3314 3078 
Q 3713 2572 3713 1747 
Q 3713 922 3314 415 
Q 2916 -91 2278 -91 
Q 1894 -91 1617 61 
Q 1341 213 1159 525 
z
M 3116 1747 
Q 3116 2381 2855 2742 
Q 2594 3103 2138 3103 
Q 1681 3103 1420 2742 
Q 1159 2381 1159 1747 
Q 1159 1113 1420 752 
Q 1681 391 2138 391 
Q 2594 391 2855 752 
Q 3116 1113 3116 1747 
z
" transform="scale(0.015625)"/>
       <path id="DejaVuSans-76" d="M 191 3500 
L 800 3500 
L 1894 563 
L 2988 3500 
L 3597 3500 
L 2284 0 
L 1503 0 
L 191 3500 
z
" transform="scale(0.015625)"/>
       <path id="DejaVuSans-61" d="M 2194 1759 
Q 1497 1759 1228 1600 
Q 959 1441 959 1056 
Q 959 750 1161 570 
Q 1363 391 1709 391 
Q 2188 391 2477 730 
Q 2766 1069 2766 1631 
L 2766 1759 
L 2194 1759 
z
M 3341 1997 
L 3341 0 
L 2766 0 
L 2766 531 
Q 2569 213 2275 61 
Q 1981 -91 1556 -91 
Q 1019 -91 701 211 
Q 384 513 384 1019 
Q 384 1609 779 1909 
Q 1175 2209 1959 2209 
L 2766 2209 
L 2766 2266 
Q 2766 2663 2505 2880 
Q 2244 3097 1772 3097 
Q 1472 3097 1187 3025 
Q 903 2953 641 2809 
L 641 3341 
Q 956 3463 1253 3523 
Q 1550 3584 1831 3584 
Q 2591 3584 2966 3190 
Q 3341 2797 3341 1997 
z
" transform="scale(0.015625)"/>
       <path id="DejaVuSans-29" d="M 513 4856 
L 1013 4856 
Q 1481 4119 1714 3412 
Q 1947 2706 1947 2009 
Q 1947 1309 1714 600 
Q 1481 -109 1013 -844 
L 513 -844 
Q 928 -128 1133 580 
Q 1338 1288 1338 2009 
Q 1338 2731 1133 3434 
Q 928 4138 513 4856 
z
" transform="scale(0.015625)"/>
      </defs>
      <use xlink:href="#DejaVuSans-2d"/>
      <use xlink:href="#DejaVuSans-6c" x="36.083984"/>
      <use xlink:href="#DejaVuSans-6f" x="63.867188"/>
      <use xlink:href="#DejaVuSans-67" x="125.048828"/>
      <use xlink:href="#DejaVuSans-31" x="188.525391"/>
      <use xlink:href="#DejaVuSans-30" x="252.148438"/>
      <use xlink:href="#DejaVuSans-28" x="315.771484"/>
      <use xlink:href="#DejaVuSans-63" x="354.785156"/>
      <use xlink:href="#DejaVuSans-6f" x="409.765625"/>
      <use xlink:href="#DejaVuSans-72" x="470.947266"/>
      <use xlink:href="#DejaVuSans-72" x="510.310547"/>
      <use xlink:href="#DejaVuSans-20" x="551.423828"/>
      <use xlink:href="#DejaVuSans-70" x="583.210938"/>
      <use xlink:href="#DejaVuSans-2d" x="646.6875"/>
      <use xlink:href="#DejaVuSans-76" x="680.146484"/>
      <use xlink:href="#DejaVuSans-61" x="739.326172"/>
      <use xlink:href="#DejaVuSans-6c" x="800.605469"/>
      <use xlink:href="#DejaVuSans-29" x="828.388672"/>
     </g>
    </g>
   </g>
   <g id="line2d_13">
    <path d="M 43.78125 19.296 
L 400.90125 19.296 
" clip-path="url(#pf10639ee42)" style="fill: none; stroke-dasharray: 0.5,0.825; stroke-dashoffset: 0; stroke: #000000; stroke-opacity: 0.3; stroke-width: 0.5"/>
   </g>
   <g id="line2d_14">
    <path d="M 140.858598 273.312 
L 140.858598 7.2 
" clip-path="url(#pf10639ee42)" style="fill: none; stroke-dasharray: 0.5,0.825; stroke-dashoffset: 0; stroke: #000000; stroke-opacity: 0.3; stroke-width: 0.5"/>
   </g>
   <g id="line2d_15">
    <path d="M 140.858598 273.312 
L 140.858598 7.2 
" clip-path="url(#pf10639ee42)" style="fill: none; stroke-dasharray: 0.5,0.825; stroke-dashoffset: 0; stroke: #000000; stroke-opacity: 0.3; stroke-width: 0.5"/>
   </g>
  </g>
 </g>
 <defs>
  <clipPath id="pf10639ee42">
   <rect x="43.78125" y="7.2" width="357.12" height="266.112"/>
  </clipPath>
 </defs>
</svg>
